<svg xmlns="http://www.w3.org/2000/svg" viewBox="0 0 512 512"><circle cx="256" cy="256" r="256" fill="#feaa00"/><path d="M512 256c0-25.148-3.643-49.441-10.401-72.401L381.667 63.667l-33.642 156.442-39.124-39.124-24.931 89.564-89.564-89.564-137.221 204.53 111.036 111.036C195.6 506.545 225.163 512 256 512c141.385 0 256-114.615 256-256z" fill="#fe8e00"/><path fill="#fff" d="M403.051 317.667h-87.384l21.384-254h44.616z"/><path fill="#e0e0e0" d="M381.667 63.667h-22.143v254h43.527z"/><path fill="#d6283b" d="M328.716 162.667h61.285l-1.852-22h-57.581z"/><path fill="#c20231" d="M388.149 140.667h-28.625v22h30.477z"/><path fill="#d6283b" d="M334.749 91l-1.571 18.667h52.361L383.968 91z"/><path fill="#c20231" d="M383.968 91h-24.444v18.667h26.015z"/><path fill="#37474f" d="M419.927 378.003H295.023V236.456l124.904-55.471z"/><path fill="#546e7a" d="M308.901 378.003H183.997V236.456l124.904-55.471z"/><g fill="#455a64"><path d="M251.286 206.573v171.43h57.615V180.985zM194.406 378.003H69.502V236.456l124.904-55.471z"/></g><path fill="#607d8a" d="M57.19 363.66h372.63v21.858H57.19z"/><path fill="#546e7a" d="M251.95 363.66h177.86v21.858H251.95z"/><g fill="#7ae5fe"><path d="M94.66 255.41h28.624v54.12H94.66zM139.41 255.41h28.624v54.12H139.41zM213.31 255.41h28.624v54.12H213.31z"/></g><g fill="#00bed2"><path d="M260.07 255.41h28.624v54.12H260.07zM327.81 255.41h28.624v54.12H327.81zM372.57 255.41h28.624v54.12H372.57z"/></g></svg>